<svg width="56" height="56" viewBox="0 0 56 56" fill="none" xmlns="http://www.w3.org/2000/svg">
<rect x="0.5" y="0.0488281" width="55" height="55" rx="27.5" fill="#FFECEC"/>
<path d="M35 24.5488C35 23.6296 34.8189 22.7193 34.4672 21.87C34.1154 21.0208 33.5998 20.2491 32.9497 19.5991C32.2997 18.9491 31.5281 18.4335 30.6788 18.0817C29.8295 17.7299 28.9193 17.5488 28 17.5488C27.0807 17.5488 26.1705 17.7299 25.3212 18.0817C24.4719 18.4335 23.7003 18.9491 23.0503 19.5991C22.4002 20.2491 21.8846 21.0208 21.5328 21.87C21.1811 22.7193 21 23.6296 21 24.5488C21 25.9358 21.41 27.2258 22.105 28.3138H22.097C24.457 32.0088 28 37.5488 28 37.5488L33.903 28.3138H33.896C34.6164 27.1902 34.9995 25.8836 35 24.5488ZM28 27.5488C27.2044 27.5488 26.4413 27.2328 25.8787 26.6701C25.3161 26.1075 25 25.3445 25 24.5488C25 23.7532 25.3161 22.9901 25.8787 22.4275C26.4413 21.8649 27.2044 21.5488 28 21.5488C28.7956 21.5488 29.5587 21.8649 30.1213 22.4275C30.6839 22.9901 31 23.7532 31 24.5488C31 25.3445 30.6839 26.1075 30.1213 26.6701C29.5587 27.2328 28.7956 27.5488 28 27.5488Z" fill="#F53838"/>
</svg>
