<svg width="55" height="56" viewBox="0 0 55 56" fill="none" xmlns="http://www.w3.org/2000/svg">
<rect y="0.0488281" width="55" height="55" rx="27.5" fill="#FFECEC"/>
<path d="M35.5 18.5488H19.5C18.9696 18.5488 18.4609 18.7595 18.0858 19.1346C17.7107 19.5097 17.5 20.0184 17.5 20.5488V24.5488C17.5 25.0793 17.7107 25.588 18.0858 25.963C18.4609 26.3381 18.9696 26.5488 19.5 26.5488H35.5C36.0304 26.5488 36.5391 26.3381 36.9142 25.963C37.2893 25.588 37.5 25.0793 37.5 24.5488V20.5488C37.5 20.0184 37.2893 19.5097 36.9142 19.1346C36.5391 18.7595 36.0304 18.5488 35.5 18.5488ZM30.5 22.5488C30.5 23.1011 30.0523 23.5488 29.5 23.5488C28.9477 23.5488 28.5 23.1011 28.5 22.5488C28.5 21.9965 28.9477 21.5488 29.5 21.5488C30.0523 21.5488 30.5 21.9965 30.5 22.5488ZM34.5 22.5488C34.5 23.1011 34.0523 23.5488 33.5 23.5488C32.9477 23.5488 32.5 23.1011 32.5 22.5488C32.5 21.9965 32.9477 21.5488 33.5 21.5488C34.0523 21.5488 34.5 21.9965 34.5 22.5488ZM35.5 28.5488H19.5C18.9696 28.5488 18.4609 28.7595 18.0858 29.1346C17.7107 29.5097 17.5 30.0184 17.5 30.5488V34.5488C17.5 35.0793 17.7107 35.588 18.0858 35.963C18.4609 36.3381 18.9696 36.5488 19.5 36.5488H35.5C36.0304 36.5488 36.5391 36.3381 36.9142 35.963C37.2893 35.588 37.5 35.0793 37.5 34.5488V30.5488C37.5 30.0184 37.2893 29.5097 36.9142 29.1346C36.5391 28.7595 36.0304 28.5488 35.5 28.5488ZM30.5 32.5488C30.5 33.1011 30.0523 33.5488 29.5 33.5488C28.9477 33.5488 28.5 33.1011 28.5 32.5488C28.5 31.9965 28.9477 31.5488 29.5 31.5488C30.0523 31.5488 30.5 31.9965 30.5 32.5488ZM34.5 32.5488C34.5 33.1011 34.0523 33.5488 33.5 33.5488C32.9477 33.5488 32.5 33.1011 32.5 32.5488C32.5 31.9965 32.9477 31.5488 33.5 31.5488C34.0523 31.5488 34.5 31.9965 34.5 32.5488Z" fill="#F53838"/>
</svg>
