<svg width="55" height="56" viewBox="0 0 55 56" fill="none" xmlns="http://www.w3.org/2000/svg">
<rect y="0.0488281" width="55" height="55" rx="27.5" fill="#FFECEC"/>
<path fill-rule="evenodd" clip-rule="evenodd" d="M27.5001 26.3484C28.4549 26.3484 29.3706 25.9692 30.0457 25.294C30.7208 24.6189 31.1001 23.7032 31.1001 22.7484C31.1001 21.7937 30.7208 20.878 30.0457 20.2029C29.3706 19.5277 28.4549 19.1484 27.5001 19.1484C26.5453 19.1484 25.6296 19.5277 24.9545 20.2029C24.2794 20.878 23.9001 21.7937 23.9001 22.7484C23.9001 23.7032 24.2794 24.6189 24.9545 25.294C25.6296 25.9692 26.5453 26.3484 27.5001 26.3484ZM22.3988 37.1484C20.577 37.1484 19.0423 35.617 19.7395 33.9339C20.1616 32.9148 20.7804 31.9888 21.5604 31.2087C22.3404 30.4287 23.2664 29.81 24.2856 29.3878C25.3047 28.9657 26.397 28.7484 27.5001 28.7484C28.6032 28.7484 29.6955 28.9657 30.7146 29.3878C31.7338 29.81 32.6598 30.4287 33.4398 31.2087C34.2198 31.9888 34.8385 32.9148 35.2607 33.9339C35.9579 35.617 34.4232 37.1484 32.6014 37.1484H22.3988Z" fill="#F53838"/>
</svg>
